<?xml version="1.0" encoding="UTF-8" standalone="no"?>
<!-- Created with Inkscape (http://www.inkscape.org/) -->

<svg
   xmlns:dc="http://purl.org/dc/elements/1.1/"
   xmlns:cc="http://creativecommons.org/ns#"
   xmlns:rdf="http://www.w3.org/1999/02/22-rdf-syntax-ns#"
   xmlns:svg="http://www.w3.org/2000/svg"
   xmlns="http://www.w3.org/2000/svg"
   xmlns:sodipodi="http://sodipodi.sourceforge.net/DTD/sodipodi-0.dtd"
   xmlns:inkscape="http://www.inkscape.org/namespaces/inkscape"
   width="297mm"
   height="210mm"
   viewBox="0 0 297 210"
   version="1.1"
   id="svg8"
   inkscape:version="0.92.3 (2405546, 2018-03-11)"
   sodipodi:docname="desenhando.svg">
  <defs
     id="defs2" />
  <sodipodi:namedview
     id="base"
     pagecolor="#ffffff"
     bordercolor="#666666"
     borderopacity="1.0"
     inkscape:pageopacity="0.0"
     inkscape:pageshadow="2"
     inkscape:zoom="0.35"
     inkscape:cx="548.26339"
     inkscape:cy="389.2152"
     inkscape:document-units="mm"
     inkscape:current-layer="layer1"
     showgrid="false"
     inkscape:snap-global="true"
     inkscape:object-paths="false"
     inkscape:snap-nodes="true"
     inkscape:window-width="1327"
     inkscape:window-height="713"
     inkscape:window-x="39"
     inkscape:window-y="27"
     inkscape:window-maximized="1"
     showguides="true"
     inkscape:lockguides="false" />
  <metadata
     id="metadata5">
    <rdf:RDF>
      <cc:Work
         rdf:about="">
        <dc:format>image/svg+xml</dc:format>
        <dc:type
           rdf:resource="http://purl.org/dc/dcmitype/StillImage" />
        <dc:title></dc:title>
      </cc:Work>
    </rdf:RDF>
  </metadata>
  <g
     inkscape:label="Camada 1"
     inkscape:groupmode="layer"
     id="layer1"
     transform="translate(0,-87)">
    <g
       id="g46"
       transform="matrix(0.96927051,0,0,0.9151616,0.69391179,31.595097)">
      <path
         sodipodi:nodetypes="cccccccccccccccc"
         inkscape:connector-curvature="0"
         id="path21"
         d="m 124.54316,156.01488 c 10.4789,-1.53261 13.99348,-6.5474 18.70981,-10.9613 19.41255,-1.46409 37.72477,2.28367 56.12947,8.88244 32.68645,14.27324 39.26144,26.51322 42.14434,36.4747 4.42966,16.03013 0.0867,19.2388 -1.5119,26.45833 -0.16628,-10.72232 1.63741,-21.13359 -17.00893,-34.77381 -13.78909,-12.57874 -31.64535,-16.03309 -51.40477,-18.70982 -34.33889,-1.14606 -46.59124,3.82169 -55.56249,7.37054 -16.642335,7.45074 -29.524891,16.6471 -32.127976,30.61607 -4.598166,20.85946 8.722906,31.61062 23.434526,41.57738 13.39979,9.98222 28.64373,10.74362 43.46726,13.60714 -12.16296,-0.61026 -24.07285,-0.58786 -38.1756,-6.04762 -15.454633,-6.00758 -31.094412,-11.08943 -44.601186,-26.83631 -0.875638,-1.5407 -16.607372,-17.80276 -1.511906,-46.11309 10.124748,-12.29469 24.923129,-19.9154 36.852672,-25.51339 7.48443,3.22242 13.19005,3.69954 21.16668,3.96874 z"
         style="fill:#008000;stroke:#000000;stroke-width:0.26458332px;stroke-linecap:butt;stroke-linejoin:miter;stroke-opacity:1" />
      <path
         sodipodi:nodetypes="ccccc"
         inkscape:connector-curvature="0"
         id="path27"
         d="m 119.81845,151.10119 c -9.67388,1.23025 -25.333851,-4.20083 -27.214284,-21.92261 1.109642,-10.44507 8.153814,-22.26622 26.458334,-24.00149 20.70431,0.92427 27.37876,15.5057 26.83631,20.41071 4.00512,15.19712 -16.58956,26.61136 -26.08036,25.51339 z"
         style="fill:#008000;stroke:#000000;stroke-width:0.26458332px;stroke-linecap:butt;stroke-linejoin:miter;stroke-opacity:1" />
      <path
         sodipodi:nodetypes="ccccc"
         inkscape:connector-curvature="0"
         id="path29"
         d="m 122.54308,197.84301 c -2.02367,1.43398 -5.28274,7.48735 1.60361,14.29892 3.60763,3.80606 7.84398,5.22301 13.22985,2.27179 2.44251,-0.74256 6.35361,-7.29225 0.26726,-13.89802 -5.43783,-6.34841 -10.37268,-5.90655 -15.10072,-2.67269 z"
         style="fill:#008000;stroke:#000000;stroke-width:0.26458332px;stroke-linecap:butt;stroke-linejoin:miter;stroke-opacity:1" />
      <path
         sodipodi:nodetypes="ccccc"
         inkscape:connector-curvature="0"
         id="path31"
         d="m 146.59733,178.1987 c -5.73822,1.6851 -8.42919,7.37321 -4.40994,15.63526 2.67696,2.88212 4.25161,7.07069 11.49259,4.54359 3.9811,-1.70268 7.24557,-4.18342 5.07812,-12.56167 -1.19853,-4.57251 -4.76598,-8.9739 -12.16077,-7.61718 z"
         style="fill:#008000;stroke:#000000;stroke-width:0.26458332px;stroke-linecap:butt;stroke-linejoin:miter;stroke-opacity:1" />
      <path
         sodipodi:nodetypes="ccccc"
         inkscape:connector-curvature="0"
         id="path33"
         d="m 177.86787,177.79779 c -6.10187,0.10986 -10.37646,2.92408 -12.02713,9.62171 -0.3614,2.05827 -1.45455,8.97146 5.47902,11.49259 1.80282,0.76239 9.0193,0.7396 12.69531,-7.34991 1.56747,-6.13807 0.0201,-12.76257 -6.1472,-13.76439 z"
         style="fill:#008000;stroke:#000000;stroke-width:0.26458332px;stroke-linecap:butt;stroke-linejoin:miter;stroke-opacity:1" />
      <path
         sodipodi:nodetypes="ccccc"
         inkscape:connector-curvature="0"
         id="path35"
         d="m 186.8214,200.78297 c 4.94899,-3.40002 9.69985,-5.37349 13.76438,-2.40542 4.45739,4.48887 2.24355,10.2414 0.26727,13.0962 -8.24479,8.31109 -14.16204,5.88499 -15.10073,4.94449 -3.76986,-3.14865 -6.06749,-7.03341 1.06908,-15.63527 z"
         style="fill:#008000;stroke:#000000;stroke-width:0.26458332px;stroke-linecap:butt;stroke-linejoin:miter;stroke-opacity:1" />
      <path
         sodipodi:nodetypes="cccccccccccccc"
         inkscape:connector-curvature="0"
         id="path37"
         d="m 161.02989,204.12384 c -5.17081,1.09564 -10.35679,2.11542 -14.83346,6.68174 -4.2035,3.88044 -7.37103,8.14937 -10.15624,12.56167 -2.52492,4.54777 -6.32823,9.20271 -5.61266,14.69982 1.11608,3.96362 5.04908,3.85767 9.6217,3.87541 6.03517,-1.2085 10.45513,-1.03254 18.70887,-4.14268 l 12.6953,-5.21175 c 1.80985,-0.0247 2.90956,-1.11468 6.01356,0.80181 0.39222,1.03268 1.40237,2.08401 2.13816,3.4745 1.01523,1.01744 2.07943,1.99407 4.14268,2.13815 6.4293,-0.4007 7.60346,-3.283 7.68399,-6.68173 -0.53643,-4.3654 -3.73444,-8.73081 -6.21401,-13.09621 -3.06061,-3.83815 -5.88842,-7.69293 -11.35895,-11.35895 -4.72375,-3.70818 -8.80615,-3.88889 -12.82894,-3.74178 z"
         style="fill:#008000;stroke:#000000;stroke-width:0.26458332px;stroke-linecap:butt;stroke-linejoin:miter;stroke-opacity:1" />
    </g>
  </g>
</svg>
